<svg xmlns="http://www.w3.org/2000/svg" viewBox="0 0 1200 700" role="img" aria-labelledby="title desc">
  <title id="title">Gate vs Rider</title>
  <desc id="desc">A gate closes silence while a rider follows performance level.</desc>
  <rect width="1200" height="700" rx="44" fill="#fffaf2"/>
  <rect x="42" y="42" width="1116" height="616" rx="36" fill="#ccfbf1" stroke="#0f766e" stroke-width="4"/>
  <text x="84" y="112" font-family="Arial, Helvetica, sans-serif" font-size="36" font-weight="700" fill="#0f766e">02. Gate vs Rider</text>
  <text x="84" y="158" font-family="Arial, Helvetica, sans-serif" font-size="20" fill="#334155">A gate closes silence while a rider follows performance level.</text>
  <rect x="84" y="212" width="1032" height="342" rx="28" fill="#ffffff" opacity="0.86"/>
  <line x1="124" y1="492" x2="1076" y2="492" stroke="#94a3b8" stroke-width="4" stroke-linecap="round"/>
  <line x1="124" y1="252" x2="124" y2="510" stroke="#94a3b8" stroke-width="4" stroke-linecap="round"/>
  <polyline points="120,246 240,206 360,346 480,306 600,266 720,226 840,186 960,326 1080,286" fill="none" stroke="#0f766e" stroke-width="9" stroke-linecap="round" stroke-linejoin="round"/>
  <path d="M170 452 C260 416 335 408 430 435 S620 487 730 420 S905 304 1030 330" fill="none" stroke="#5eead4" stroke-width="18" stroke-linecap="round" opacity="0.72"/>
  <circle cx="228" cy="356" r="24" fill="#0f766e" opacity="0.9"/>
  <rect x="148" y="575" width="240" height="38" rx="19" fill="#ffffff" opacity="0.85"/>
  <rect x="420" y="575" width="240" height="38" rx="19" fill="#ffffff" opacity="0.85"/>
  <rect x="692" y="575" width="240" height="38" rx="19" fill="#ffffff" opacity="0.85"/>
  <text x="176" y="601" font-family="Arial, Helvetica, sans-serif" font-size="18" font-weight="700" fill="#0f766e">WRITE MOVE</text>
  <text x="448" y="601" font-family="Arial, Helvetica, sans-serif" font-size="18" font-weight="700" fill="#0f766e">LISTEN IN SONG</text>
  <text x="720" y="601" font-family="Arial, Helvetica, sans-serif" font-size="18" font-weight="700" fill="#0f766e">TRIM OR BYPASS</text>
  <text x="84" y="640" font-family="Arial, Helvetica, sans-serif" font-size="16" fill="#475569">Automation: Beyond Volume / gate vs rider</text>
</svg>
